<?xml version="1.0" encoding="UTF-8"?>
<svg xmlns="http://www.w3.org/2000/svg" xmlns:xlink="http://www.w3.org/1999/xlink"  viewBox="0 0 1501 312.44" version="1.1">
<defs>
<clipPath id="clip1">
  <path d="M 151 0 L 318 0 L 318 312.441406 L 151 312.441406 Z M 151 0 "/>
</clipPath>
</defs>
<g id="surface1">
<g clip-path="url(#clip1)" clip-rule="nonzero">
<path style=" stroke:none;fill-rule:nonzero;fill:rgb(34.498596%,34.899902%,35.699463%);fill-opacity:1;" d="M 151.402344 0 L 151.402344 291.492188 L 217.367188 312.4375 L 217.367188 67.933594 C 217.367188 56.507813 222.476563 48.824219 230.714844 51.503906 C 241.480469 54.480469 243.574219 65.027344 243.574219 76.476563 L 243.574219 174.117188 C 284.710938 193.96875 317.058594 174.105469 317.058594 121.707031 C 317.058594 67.933594 298.125 44.082031 242.28125 24.863281 C 220.300781 17.5 179.46875 5.179688 151.402344 0 "/>
</g>
<path style=" stroke:none;fill-rule:nonzero;fill:rgb(34.498596%,34.899902%,35.699463%);fill-opacity:1;" d="M 229.867188 269.859375 L 335.96875 232.027344 C 347.996094 227.722656 349.855469 221.601563 340.074219 218.414063 C 330.308594 215.222656 312.609375 216.152344 300.585938 220.449219 L 229.867188 245.371094 L 229.867188 205.738281 L 233.9375 204.375 C 233.9375 204.375 254.375 197.125 283.074219 193.9375 C 311.8125 190.820313 346.996094 194.351563 374.589844 204.847656 C 405.722656 214.695313 409.21875 229.15625 401.324219 239.121094 C 393.390625 249.113281 374.035156 256.242188 374.035156 256.242188 L 229.867188 308.019531 "/>
<path style=" stroke:none;fill-rule:nonzero;fill:rgb(34.498596%,34.899902%,35.699463%);fill-opacity:1;" d="M 30.402344 265.820313 C -1.535156 256.820313 -6.863281 238.121094 7.679688 227.320313 C 21.175781 217.328125 44.050781 209.847656 44.050781 209.847656 L 138.613281 176.253906 L 138.613281 214.542969 L 70.5625 238.910156 C 58.527344 243.21875 56.714844 249.335938 66.445313 252.503906 C 76.246094 255.726563 93.921875 254.808594 105.96875 250.476563 L 138.613281 238.652344 L 138.613281 272.941406 C 136.527344 273.292969 134.234375 273.660156 132.117188 274 C 99.453125 279.332031 64.667969 277.117188 30.402344 265.820313 "/>
<path style=" stroke:none;fill-rule:nonzero;fill:rgb(34.498596%,34.899902%,35.699463%);fill-opacity:1;" d="M 380.332031 311.914063 C 384.449219 311.914063 388.355469 310.300781 391.265625 307.371094 C 394.15625 304.464844 395.746094 300.59375 395.746094 296.464844 C 395.746094 292.367188 394.15625 288.507813 391.265625 285.566406 C 388.355469 282.613281 384.449219 280.988281 380.332031 280.988281 C 371.800781 280.988281 364.894531 287.96875 364.894531 296.464844 C 364.894531 300.59375 366.507813 304.464844 369.410156 307.371094 C 372.332031 310.300781 376.179688 311.914063 380.332031 311.914063 M 367.492188 296.464844 C 367.492188 293.039063 368.8125 289.816406 371.246094 287.390625 C 373.648438 284.921875 376.882813 283.625 380.332031 283.625 C 383.769531 283.625 386.980469 284.921875 389.394531 287.390625 C 391.851563 289.816406 393.144531 293.039063 393.144531 296.464844 C 393.144531 303.570313 387.378906 309.300781 380.332031 309.300781 C 376.882813 309.300781 373.648438 307.984375 371.246094 305.535156 C 368.8125 303.136719 367.492188 299.898438 367.492188 296.464844 "/>
<path style=" stroke:none;fill-rule:nonzero;fill:rgb(34.498596%,34.899902%,35.699463%);fill-opacity:1;" d="M 387.921875 303.652344 C 387.710938 303.570313 387.519531 303.3125 387.390625 302.898438 C 387.378906 302.617188 387.308594 302.195313 387.285156 301.570313 L 387.179688 299.382813 C 387.144531 298.324219 386.96875 297.59375 386.578125 297.097656 C 386.308594 296.78125 385.957031 296.464844 385.566406 296.238281 C 386.097656 295.898438 386.519531 295.5 386.839844 294.992188 C 387.308594 294.300781 387.519531 293.429688 387.519531 292.367188 C 387.519531 290.308594 386.675781 288.910156 384.992188 288.15625 C 384.121094 287.730469 383.027344 287.578125 381.742188 287.578125 L 373.742188 287.578125 L 373.742188 304.761719 L 376.730469 304.761719 L 376.730469 297.6875 L 381.414063 297.6875 C 382.25 297.6875 382.910156 297.828125 383.273438 297.980469 C 383.863281 298.273438 384.203125 298.863281 384.226563 299.828125 L 384.378906 302.558594 C 384.414063 303.183594 384.449219 303.652344 384.484375 303.898438 C 384.519531 304.171875 384.605469 304.371094 384.699219 304.546875 L 384.816406 304.761719 L 388.144531 304.761719 L 388.144531 303.757813 L 387.921875 303.652344 M 384.507813 292.59375 C 384.507813 293.546875 384.261719 294.179688 383.757813 294.570313 C 383.226563 294.910156 382.460938 295.085938 381.496094 295.085938 L 376.730469 295.085938 L 376.730469 290.226563 L 381.789063 290.226563 C 382.472656 290.226563 383.027344 290.308594 383.460938 290.53125 C 384.15625 290.898438 384.507813 291.546875 384.507813 292.59375 "/>
</g>
</svg>
